#!OML:ASF X:\für Bonn\!DataBase\2005_08_10_Bjorn_Final\c3d\bjorn.ASF
:FULLY-SPECIFIED
:DEGREES
191
root 1.33274 5.37693 17.9102 -407.324 -176.334 -730.244
lowerback 51.1189 -15.4098 -3.49166
upperback 26.139 -4.16227 -5.46016
thorax 8.63531 5.23743 -2.0836
lowerneck -5.35742 3.18185 9.21403
upperneck 16.7424 6.27397 -12.4736
head 6.5957 3.00095 -5.07421
rclavicle -7.95139e-015 -1.74931e-014
rhumerus -210.357 -141.665 102.097
rradius 23.8426
rwrist -14.8155
rhand -21.4016 1.75503
rfingers 7.12502
rthumb 4.98661 -28.1663
lclavicle -7.95139e-015 -1.74931e-014
lhumerus -29.5201 36.5104 73.8339
lradius 8.16841
lwrist -38.584
lhand -11.3998 -366.153
lfingers 7.12502
lthumb 14.6353 23.311
rfemur 50.523 -71.3289 -153.066
rtibia 151.959
rfoot -54.9025 52.1891
rtoes -8.75306
lfemur 172.94 113.866 246.956
ltibia 151.153
lfoot -46.6904 -22.0829
ltoes -16.9331
192
root 1.37009 5.351 17.9664 -407.679 -175.783 -729.957
lowerback 51.1161 -15.1634 -3.54064
upperback 26.1315 -3.7378 -5.47222
thorax 8.65541 5.51878 -2.18753
lowerneck -5.33121 2.92867 9.16888
upperneck 16.7919 5.93365 -12.3435
head 6.56045 2.85373 -5.05191
rclavicle -3.81667e-014 -2.38542e-014
rhumerus -210.749 -141.893 101.769
rradius 23.5211
rwrist -15.7985
rhand -21.2964 1.45436
rfingers 7.12502
rthumb 5.08818 -28.4646
lclavicle -3.81667e-014 -2.38542e-014
lhumerus -29.8757 37.9295 73.1435
lradius 8.00008
lwrist -38.0722
lhand -11.4161 -365.676
lfingers 7.12502
lthumb 14.6196 23.7887
rfemur 50.3402 -71.138 -152.608
rtibia 151.903
rfoot -54.0807 52.2699
rtoes -7.73623
lfemur 170.85 113.698 244.65
ltibia 150.966
lfoot -46.2267 -21.9851
ltoes -16.8556
193
root 1.40659 5.3266 18.0218 -408.038 -175.236 -729.665
lowerback 48.7797 -0.296594 13.767
upperback 25.9066 -10.8906 1.91834
thorax 9.33107 -10.7709 -2.30341
lowerneck -5.28755 3.66959 8.96
upperneck 17.1061 5.25167 -11.9206
head 6.5874 1.95706 -4.99938
rclavicle 2.70347e-014 9.22361e-014
rhumerus -211.155 -142.184 101.424
rradius 23.2689
rwrist -16.8858
rhand -21.1855 1.11104
rfingers 7.12502
rthumb 5.19521 -28.8053
lclavicle 2.70347e-014 9.22361e-014
lhumerus -30.2476 39.2702 72.4651
lradius 7.83572
lwrist -37.3643
lhand -11.4178 -365.027
lfingers 7.12502
lthumb 14.618 24.4379
rfemur 50.0523 -71.0208 -152.02
rtibia 151.84
rfoot -53.2694 52.1988
rtoes -6.97758
lfemur 168.913 113.556 242.517
ltibia 150.766
lfoot -45.8305 -21.7923
ltoes -17.282
194
root 1.44224 5.30396 18.0767 -408.361 -174.68 -729.378
lowerback 48.8053 -0.0208789 13.7227
upperback 25.9396 -10.3529 1.96836
thorax 9.38152 -10.4443 -2.38186
lowerneck -5.25377 3.37078 8.96115
upperneck 17.1993 4.81282 -11.8076
head 6.55811 1.74734 -5.00014
rclavicle 4.29375e-014 -6.36111e-015
rhumerus -211.564 -142.3 101.098
rradius 23.0279
rwrist -18.0032
rhand -21.1084 0.824239
rfingers 7.12502
rthumb 5.2697 -29.0902
lclavicle 4.29375e-014 -6.36111e-015
lhumerus -30.6698 40.4693 71.7572
lradius 7.7905
lwrist -36.5189
lhand -11.2961 -364.414
lfingers 7.12502
lthumb 14.7352 25.0419
rfemur 49.7979 -70.9608 -151.459
rtibia 151.763
rfoot -52.3369 52.1338
rtoes -6.09266
lfemur 166.874 113.418 240.315
ltibia 150.575
lfoot -45.31 -21.8674
ltoes -17.2395
195
root 1.47735 5.28223 18.1323 -408.68 -174.135 -729.086
lowerback 48.8382 0.280211 13.6648
upperback 25.9888 -9.82273 2.05332
thorax 9.45977 -10.1366 -2.41992
lowerneck -5.31475 3.08093 8.91649
upperneck 17.3134 4.39165 -11.7028
head 6.55403 1.54062 -4.99335
rclavicle 2.70347e-014 -2.8625e-014
rhumerus -211.827 -142.469 100.687
rradius 22.8232
rwrist -19.1851
rhand -21.008 0.517785
rfingers 7.12502
rthumb 5.36664 -29.3943
lclavicle 2.70347e-014 -2.8625e-014
lhumerus -31.1091 41.671 70.978
lradius 7.84104
lwrist -35.4016
lhand -11.1796 -364.018
lfingers 7.12502
lthumb 14.8475 25.4304
rfemur 49.4059 -70.9999 -150.728
rtibia 151.681
rfoot -51.3576 51.998
rtoes -5.28507
lfemur 164.723 113.324 238.019
ltibia 150.359
lfoot -44.6954 -22.2048
ltoes -17.016
196
root 1.51196 5.26268 18.1871 -408.991 -173.586 -728.773
lowerback 48.86 0.549963 13.5927
upperback 26.0222 -9.33807 2.12843
thorax 9.51585 -9.85236 -2.44438
lowerneck -5.32368 2.82206 8.78429
upperneck 17.4301 4.02173 -11.5866
head 6.54607 1.3542 -4.96371
rclavicle -3.18055e-015 2.38542e-014
rhumerus -212.046 -142.699 100.253
rradius 22.5781
rwrist -20.329
rhand -20.9379 0.24278
rfingers 7.12502
rthumb 5.43431 -29.6675
lclavicle -3.18055e-015 2.38542e-014
lhumerus -31.677 42.9385 70.0771
lradius 7.98752
lwrist -33.8762
lhand -11.0147 -364.003
lfingers 7.12502
lthumb 15.0063 25.4331
rfemur 49.0543 -71.0137 -150.003
rtibia 151.574
rfoot -50.396 51.816
rtoes -4.41658
lfemur 162.123 113.311 235.324
ltibia 150.152
lfoot -43.938 -22.808
ltoes -16.6166
197
root 1.54493 5.24544 18.2433 -409.305 -173.025 -728.446
lowerback 48.8677 0.798374 13.5234
upperback 26.0807 -8.91674 2.20729
thorax 9.60472 -9.60915 -2.45541
lowerneck -5.34638 2.57893 8.54263
upperneck 17.515 3.68845 -11.4932
head 6.53376 1.17694 -4.91873
rclavicle -3.57812e-014 7.95139e-015
rhumerus -212.124 -143.035 99.7215
rradius 22.363
rwrist -21.5696
rhand -20.8796 -0.026789
rfingers 7.12502
rthumb 5.49056 -29.9357
lclavicle -3.57812e-014 7.95139e-015
lhumerus -32.2928 44.2954 69.1256
lradius 8.21375
lwrist -32.0823
lhand -10.7312 -364.232
lfingers 7.12502
lthumb 15.2794 25.1839
rfemur 48.4701 -71.1365 -149.02
rtibia 151.449
rfoot -49.2975 51.6305
rtoes -3.58597
lfemur 158.799 113.448 231.859
ltibia 149.948
lfoot -42.9113 -23.4074
ltoes -16.104
198
root 1.5774 5.22951 18.299 -409.612 -172.472 -728.125
lowerback 48.888 1.04153 13.4564
upperback 26.1228 -8.48928 2.27534
thorax 9.66922 -9.35882 -2.47399
lowerneck -5.38996 2.33082 8.28254
upperneck 17.6652 3.34243 -11.3518
head 6.54501 0.993503 -4.85687
rclavicle 1.90833e-014 3.81667e-014
rhumerus -212.212 -143.287 99.2092
rradius 22.1364
rwrist -22.7453
rhand -20.7915 -0.268085
rfingers 7.12502
rthumb 5.57565 -30.1747
lclavicle 1.90833e-014 3.81667e-014
lhumerus -32.9488 45.6341 68.1284
lradius 8.47847
lwrist -30.0329
lhand -10.2 -364.522
lfingers 7.12502
lthumb 15.791 24.8542
rfemur 47.7621 -71.3048 -147.899
rtibia 151.314
rfoot -48.2598 51.3186
rtoes -2.93537
lfemur 155.622 113.654 228.6
ltibia 149.758
lfoot -41.836 -23.9514
ltoes -15.6509
199
root 1.6081 5.21396 18.3537 -409.94 -171.905 -727.77
lowerback 48.9184 1.24868 13.4237
upperback 26.1524 -8.09033 2.34648
thorax 9.71839 -9.11956 -2.49229
lowerneck -5.32602 2.073 7.98607
upperneck 17.7291 2.98908 -11.2084
head 6.50989 0.809077 -4.78615
rclavicle -7.55382e-014 -5.08889e-014
rhumerus -212.307 -143.589 98.6917
rradius 21.9659
rwrist -24.0104
rhand -20.748 -0.536607
rfingers 7.12502
rthumb 5.6177 -30.4421
lclavicle -7.55382e-014 -5.08889e-014
lhumerus -33.6459 46.9714 67.0891
lradius 8.75599
lwrist -28.0131
lhand -9.43282 -364.741
lfingers 7.12502
lthumb 16.5298 24.5749
rfemur 46.8856 -71.4716 -146.602
rtibia 151.163
rfoot -47.2259 50.9674
rtoes -2.40068
lfemur 152.581 113.944 225.449
ltibia 149.563
lfoot -40.9004 -24.0584
ltoes -15.7824
200
root 1.63755 5.19972 18.4075 -410.283 -171.317 -727.413
lowerback 48.9576 1.44906 13.3965
upperback 26.1858 -7.70163 2.41155
thorax 9.76997 -8.88524 -2.51604
lowerneck -5.32099 1.82487 7.70673
upperneck 17.852 2.64511 -11.0526
head 6.50688 0.628867 -4.71467
rclavicle 1.82882e-014 -2.8625e-014
rhumerus -212.397 -143.787 98.185
rradius 21.8034
rwrist -25.199
rhand -20.6869 -0.783298
rfingers 7.12502
rthumb 5.67663 -30.6873
lclavicle 1.82882e-014 -2.8625e-014
lhumerus -34.3722 48.2855 66.0025
lradius 9.07365
lwrist -26.0881
lhand -8.37688 -364.797
lfingers 7.12502
lthumb 17.5462 24.4313
rfemur 45.7358 -71.6846 -145.058
rtibia 151.006
rfoot -46.232 50.5553
rtoes -2.01434
lfemur 149.692 114.315 222.396
ltibia 149.364
lfoot -39.957 -24.0784
ltoes -15.8897
201
root 1.66572 5.18584 18.4589 -410.623 -170.708 -727.052
lowerback 48.9788 1.6386 13.3453
upperback 26.2194 -7.34378 2.48045
thorax 9.82243 -8.67088 -2.51702
lowerneck -5.36936 1.59662 7.38415
upperneck 18.0416 2.33334 -10.9095
head 6.53914 0.456574 -4.63947
rclavicle 1.11319e-014 -6.36111e-015
rhumerus -212.437 -143.996 97.6891
rradius 21.6179
rwrist -26.3806
rhand -20.5869 -1.02554
rfingers 7.12502
rthumb 5.77318 -30.9269
lclavicle 1.11319e-014 -6.36111e-015
lhumerus -35.2256 49.64 64.8346
lradius 9.49225
lwrist -24.3631
lhand -7.19229 -364.522
lfingers 7.12502
lthumb 18.6859 24.6004
rfemur 44.497 -71.8743 -143.462
rtibia 150.834
rfoot -45.2727 50.1079
rtoes -1.7851
lfemur 147.218 114.667 219.762
ltibia 149.176
lfoot -39.1599 -24.0265
ltoes -16.2726
202
root 1.69287 5.17307 18.5101 -410.976 -170.077 -726.663
lowerback 49.0078 1.79708 13.3122
upperback 26.2356 -7.00494 2.54067
thorax 9.85095 -8.46011 -2.52465
lowerneck -5.46641 1.37351 7.10898
upperneck 18.2938 2.02688 -10.7946
head 6.60277 0.28492 -4.58354
rclavicle -2.46493e-014 4.6118e-014
rhumerus -212.532 -144.082 97.2518
rradius 21.4521
rwrist -27.4586
rhand -20.5034 -1.23293
rfingers 7.12502
rthumb 5.8538 -31.1321
lclavicle -2.46493e-014 4.6118e-014
lhumerus -36.1743 50.969 63.5698
lradius 9.90597
lwrist -22.9114
lhand -6.24855 -364.055
lfingers 7.12502
lthumb 19.5934 24.9779
rfemur 42.9645 -72.1055 -141.564
rtibia 150.649
rfoot -44.2027 49.6777
rtoes -1.57154
lfemur 144.686 115.139 217.044
ltibia 148.977
lfoot -38.3542 -23.9495
ltoes -16.6877
203
root 1.71915 5.16234 18.5603 -411.346 -169.474 -726.277
lowerback 49.0815 1.93932 13.3084
upperback 26.2247 -6.65671 2.57716
thorax 9.83858 -8.23692 -2.56391
lowerneck -5.58087 1.1531 6.89104
upperneck 18.5774 1.71896 -10.6839
head 6.68136 0.11548 -4.54028
rclavicle 2.78299e-014 -2.38542e-014
rhumerus -212.727 -143.895 96.9382
rradius 21.2644
rwrist -28.2767
rhand -20.3399 -1.40403
rfingers 7.12502
rthumb 6.01163 -31.2987
lclavicle 2.78299e-014 -2.38542e-014
lhumerus -37.2024 52.2485 62.2041
lradius 10.2851
lwrist -21.8725
lhand -5.63167 -363.599
lfingers 7.12502
lthumb 20.1864 25.3726
rfemur 41.1487 -72.37 -139.33
rtibia 150.445
rfoot -43.1769 49.1488
rtoes -1.51556
lfemur 142.674 115.566 214.869
ltibia 148.775
lfoot -37.6981 -23.8996
ltoes -17.1626
204
root 1.74342 5.15065 18.6085 -411.726 -168.857 -725.881
lowerback 49.1623 2.06638 13.2885
upperback 26.201 -6.33562 2.62614
thorax 9.80991 -8.03324 -2.57225
lowerneck -5.76291 0.947912 6.59116
upperneck 18.9457 1.43824 -10.5707
head 6.80272 -0.0511836 -4.4837
rclavicle -5.00937e-014 -1.19271e-013
rhumerus -212.911 -143.592 96.7411
rradius 21.0169
rwrist -28.8939
rhand -20.168 -1.61231
rfingers 7.12502
rthumb 6.17758 -31.5022
lclavicle -5.00937e-014 -1.19271e-013
lhumerus -36.9767 52.1457 62.4972
lradius 10.6337
lwrist -19.5618
lhand -5.42594 -363.385
lfingers 7.12502
lthumb 20.3841 25.5653
rfemur 39.3466 -72.5752 -137.178
rtibia 150.253
rfoot -42.2445 48.5925
rtoes -1.68329
lfemur 140.802 116.007 212.854
ltibia 148.599
lfoot -37.1384 -23.8262
ltoes -17.7958
205
root 1.76692 5.14066 18.6564 -412.136 -168.265 -725.462
lowerback 49.2563 2.17806 13.3233
upperback 26.1809 -6.01682 2.66852
thorax 9.78717 -7.82513 -2.61221
lowerneck -5.88928 0.727493 6.3147
upperneck 19.2429 1.1374 -10.4634
head 6.89114 -0.222193 -4.43253
rclavicle 3.57812e-014 6.52014e-014
rhumerus -213.089 -143.277 96.5365
rradius 20.7805
rwrist -29.5402
rhand -19.9495 -1.80919
rfingers 7.12502
rthumb 6.38852 -31.6928
lclavicle 3.57812e-014 6.52014e-014
lhumerus -36.7232 52.0367 62.7878
lradius 10.9462
lwrist -17.9118
lhand -5.38611 -363.392
lfingers 7.12502
lthumb 20.4224 25.5536
rfemur 37.4567 -72.7401 -134.873
rtibia 150.041
rfoot -41.3405 47.9998
rtoes -1.82436
lfemur 139.277 116.403 211.236
ltibia 148.417
lfoot -36.6376 -23.84
ltoes -18.2781
